<?xml version="1.0" encoding="UTF-8" standalone="no"?>
<svg
   width="1024"
   height="1024"
   viewBox="0 0 1024 1024"
   version="1.1"
   id="svg317"
   sodipodi:docname="icon.svg"
   inkscape:version="1.2.2 (b0a8486541, 2022-12-01)"
   inkscape:export-filename="icon.png"
   inkscape:export-xdpi="96"
   inkscape:export-ydpi="96"
   xmlns:inkscape="http://www.inkscape.org/namespaces/inkscape"
   xmlns:sodipodi="http://sodipodi.sourceforge.net/DTD/sodipodi-0.dtd"
   xmlns="http://www.w3.org/2000/svg"
   xmlns:svg="http://www.w3.org/2000/svg">
  <defs
     id="defs321" />
  <sodipodi:namedview
     id="namedview319"
     pagecolor="#515151"
     bordercolor="#000000"
     borderopacity="0.25"
     inkscape:showpageshadow="2"
     inkscape:pageopacity="0"
     inkscape:pagecheckerboard="0"
     inkscape:deskcolor="#d1d1d1"
     showgrid="false"
     inkscape:zoom="0.696333"
     inkscape:cx="665.62981"
     inkscape:cy="565.82124"
     inkscape:window-width="1920"
     inkscape:window-height="1011"
     inkscape:window-x="0"
     inkscape:window-y="484"
     inkscape:window-maximized="1"
     inkscape:current-layer="svg317" />
  <rect
     style="fill:#195528;stroke-width:3.81298"
     id="rect2618"
     width="1024"
     height="1024"
     x="0"
     y="0" />
  <g
     id="Grupo_51"
     data-name="Grupo 51"
     transform="matrix(7.5016504,0,0,7.5016504,262,216.35955)">
    <path
       id="Trazado_193"
       data-name="Trazado 193"
       d="m 228.1,29.4 -4.284,12.2 3.942,23.094 4.685,-23.077 z"
       transform="translate(-194.293,-29.399)"
       fill="#ffffff"
       stroke="#707070"
       stroke-width="1" />
    <g
       id="Grupo_42"
       data-name="Grupo 42"
       transform="translate(0,22.644)">
      <path
         id="Trazado_194"
         data-name="Trazado 194"
         d="m 129.66,102.465 a 13.959,13.959 0 0 0 4.034,3.7 16.748,16.748 0 0 1 -4.034,-3.7 z"
         transform="translate(-129.66,-102.201)"
         fill="#ffffff" />
      <path
         id="Trazado_195"
         data-name="Trazado 195"
         d="m 148.564,104.494 c -8.753,-4.1 -18.9,-2.607 -18.9,-2.607 l 33.462,12.385 z"
         transform="translate(-129.66,-101.622)"
         fill="#ffffff" />
      <path
         id="Trazado_196"
         data-name="Trazado 196"
         d="m 159.693,123.435 q 0.565,0.182 1.123,0.356 c -1.5,-0.53 -2.968,-1.117 -4.363,-1.766 1.847,0.888 3.24,1.41 3.24,1.41 z"
         transform="translate(-148.053,-115.628)"
         fill="#ffffff" />
      <path
         id="Trazado_197"
         data-name="Trazado 197"
         d="m 191.068,132.144 a 118.132,118.132 0 0 1 -20.7,-4.486 99.785,99.785 0 0 0 20.7,4.486 z"
         transform="translate(-157.606,-119.495)"
         fill="#ffffff" />
      <path
         id="Trazado_198"
         data-name="Trazado 198"
         d="m 142.525,114.253 a 31.447,31.447 0 0 0 4.367,2.437 37.867,37.867 0 0 1 -4.367,-2.437 z"
         transform="translate(-138.491,-110.293)"
         fill="#ffffff" />
    </g>
    <g
       id="Grupo_43"
       data-name="Grupo 43"
       transform="translate(6.891,11.175)">
      <path
         id="Trazado_199"
         data-name="Trazado 199"
         d="m 151.639,65.041 21.061,15.431 5.508,8.687 c 0,0 -3.011,-7.17 -12.7,-18.624 z"
         transform="translate(-151.639,-65.041)"
         fill="#ffffff" />
      <path
         id="Trazado_200"
         data-name="Trazado 200"
         d="m 175.078,105.435 19.222,11.454 -14.558,-9.778 z"
         transform="translate(-167.729,-92.77)"
         fill="#ffffff" />
    </g>
    <g
       id="Grupo_44"
       data-name="Grupo 44"
       transform="translate(17.972,3.073)">
      <path
         id="Trazado_201"
         data-name="Trazado 201"
         d="m 202.472,71.421 v 0 L 198.53,48.327 186.983,39.2 c 0.063,0.307 14.217,24.763 14.217,24.763 z"
         transform="translate(-186.983,-39.201)"
         fill="#ffffff" />
      <path
         id="Trazado_202"
         data-name="Trazado 202"
         d="m 195.741,81.821 c -0.01,0.01 6.013,8.073 9.787,13.716 -2.754,-4.519 -6.9,-10.974 -9.857,-14.055 z"
         transform="translate(-192.947,-68.225)"
         fill="#ffffff" />
      <path
         id="Trazado_203"
         data-name="Trazado 203"
         d="m 189.707,52.457 v 0 L 186.983,39.2 Z"
         transform="translate(-186.983,-39.201)"
         fill="#ffffff" />
      <path
         id="Trazado_204"
         data-name="Trazado 204"
         d="m 230.018,131.22 a 31.156,31.156 0 0 0 -2.909,-4.909 c 1.727,2.835 2.909,4.909 2.909,4.909 z"
         transform="translate(-214.528,-98.999)"
         fill="#ffffff" />
    </g>
    <path
       id="Trazado_205"
       data-name="Trazado 205"
       d="M 228.1,29.4 227.759,64.693 223.813,41.6 Z"
       transform="translate(-194.293,-29.399)"
       fill="#ffffff" />
    <g
       id="Grupo_45"
       data-name="Grupo 45"
       transform="translate(33.462,2.933)">
      <path
         id="Trazado_206"
         data-name="Trazado 206"
         d="m 236.387,71.115 12.866,-18.566 2.619,-13.794 z"
         transform="translate(-236.387,-38.755)"
         fill="#ffffff" />
      <path
         id="Trazado_207"
         data-name="Trazado 207"
         d="m 251.872,38.755 -10.947,8.871 -4.539,23.489 4.685,-23.077 z"
         transform="translate(-236.387,-38.755)"
         fill="#ffffff" />
    </g>
    <g
       id="Grupo_46"
       data-name="Grupo 46"
       transform="translate(33.462,10.942)">
      <path
         id="Trazado_208"
         data-name="Trazado 208"
         d="M 249.253,70.084 236.387,88.65 262.942,64.3 Z"
         transform="translate(-236.387,-64.298)"
         fill="#ffffff" />
      <path
         id="Trazado_209"
         data-name="Trazado 209"
         d="M 254.7,77.221 236.387,88.65 254.328,77.8 262.942,64.3 Z"
         transform="translate(-236.387,-64.298)"
         fill="#ffffff" />
    </g>
    <g
       id="Grupo_47"
       data-name="Grupo 47"
       transform="translate(33.462,22.644)">
      <path
         id="Trazado_210"
         data-name="Trazado 210"
         d="M 269.577,101.622 H 259.1 l -4.773,1.8 -17.941,10.849 16.219,-3.375 -15.877,3.3 31.678,-11.448 a 46.975,46.975 0 0 1 -4.612,3.365 27.31,27.31 0 0 0 5.783,-4.491 z"
         transform="translate(-236.387,-101.622)"
         fill="#ffffff" />
      <path
         id="Trazado_211"
         data-name="Trazado 211"
         d="m 299.306,115.96 a 43.937,43.937 0 0 1 -11.189,4.778 c 4.019,-0.621 8.156,-2.821 11.189,-4.778 z"
         transform="translate(-271.898,-111.465)"
         fill="#ffffff" />
    </g>
    <g
       id="Grupo_48"
       data-name="Grupo 48"
       transform="translate(24.826,45.327)">
      <path
         id="Trazado_212"
         data-name="Trazado 212"
         d="m 226.937,173.971 -4.535,6.286 3.352,6.146 h 2.165 l 3.552,-5.657 z"
         transform="translate(-218.151,-173.971)"
         fill="#ffffff" />
      <path
         id="Trazado_213"
         data-name="Trazado 213"
         d="m 210.447,202.4 a 27.52,27.52 0 0 1 3.4,-6.751 l 3.678,6.006 -0.372,0.745 z"
         transform="translate(-209.944,-188.855)"
         fill="#ffffff" />
      <path
         id="Trazado_214"
         data-name="Trazado 214"
         d="m 212.9,226.488 a 27.516,27.516 0 0 1 -4.06,-6.375 l 7.043,-0.086 0.449,0.7 z"
         transform="translate(-208.843,-205.587)"
         fill="#ffffff" />
      <path
         id="Trazado_215"
         data-name="Trazado 215"
         d="m 244.323,226.488 a 27.51,27.51 0 0 0 4.06,-6.375 l -7.042,-0.086 -0.45,0.7 z"
         transform="translate(-230.843,-205.587)"
         fill="#ffffff" />
      <path
         id="Trazado_216"
         data-name="Trazado 216"
         d="m 223.4,228.432 c 0.051,0.273 4.6,0.975 8.661,-0.1 l -3.527,-6.059 -1.187,-0.07 z"
         transform="translate(-218.839,-207.077)"
         fill="#ffffff" />
    </g>
    <path
       id="Trazado_217"
       data-name="Trazado 217"
       d="m 247.968,202.4 a 27.506,27.506 0 0 0 -3.4,-6.751 l -3.678,6.006 0.372,0.745 z"
       transform="translate(-206.017,-143.528)"
       fill="#ffffff" />
    <path
       id="Trazado_218"
       data-name="Trazado 218"
       d="m 212.1,167.417 h 3.876 l -1.938,3.357 -1.938,3.357 -1.938,-3.357 -1.938,-3.357 z"
       transform="translate(-183.589,-124.144)"
       fill="#ffffff" />
    <path
       id="Trazado_219"
       data-name="Trazado 219"
       d="m 212.962,151.392 h -2.955 l 1.478,-2.559 1.477,-2.559 1.477,2.559 1.478,2.559 z"
       transform="translate(-184.816,-109.631)"
       fill="#ffffff" />
    <path
       id="Trazado_220"
       data-name="Trazado 220"
       d="m 247.569,151.392 h -2.955 l 1.478,-2.559 1.477,-2.559 1.477,2.559 1.478,2.559 z"
       transform="translate(-208.573,-109.631)"
       fill="#ffffff" />
    <path
       id="Trazado_221"
       data-name="Trazado 221"
       d="m 194.507,193.8 h 3.876 l -1.938,3.357 -1.938,3.357 -1.938,-3.357 -1.939,-3.357 z"
       transform="translate(-171.514,-142.253)"
       fill="#ffffff" />
    <path
       id="Trazado_222"
       data-name="Trazado 222"
       d="m 178.385,221.584 h 3.876 l -1.938,3.357 -1.938,3.357 -1.938,-3.357 -1.938,-3.357 z"
       transform="translate(-160.447,-161.328)"
       fill="#ffffff" />
    <path
       id="Trazado_223"
       data-name="Trazado 223"
       d="m 279.221,221.584 h 3.879 l -1.938,3.357 -1.938,3.357 -1.938,-3.357 -1.938,-3.357 z"
       transform="translate(-229.669,-161.328)"
       fill="#ffffff" />
    <path
       id="Trazado_224"
       data-name="Trazado 224"
       d="M 194.478,228.431 H 190.6 l 1.938,-3.357 1.938,-3.357 1.938,3.357 1.938,3.357 z"
       transform="translate(-171.495,-161.42)"
       fill="#ffffff" />
    <path
       id="Trazado_225"
       data-name="Trazado 225"
       d="m 196.482,247.663 h 3.5 l -1.752,3.034 -1.752,3.034 -1.748,-3.031 -1.752,-3.034 z"
       transform="translate(-173.126,-179.231)"
       fill="#ffffff" />
    <path
       id="Trazado_226"
       data-name="Trazado 226"
       d="m 261.846,247.663 h 3.5 l -1.746,3.037 -1.752,3.034 -1.752,-3.034 -1.752,-3.034 z"
       transform="translate(-217.997,-179.231)"
       fill="#ffffff" />
    <path
       id="Trazado_227"
       data-name="Trazado 227"
       d="m 229.933,247.663 h 3.5 l -1.752,3.034 -1.752,3.034 -1.752,-3.034 -1.752,-3.034 z"
       transform="translate(-196.09,-179.231)"
       fill="#ffffff" />
    <path
       id="Trazado_228"
       data-name="Trazado 228"
       d="m 213.12,255.81 h -3.5 l 1.752,-3.034 1.752,-3.034 1.752,3.034 1.752,3.034 z"
       transform="translate(-184.548,-180.658)"
       fill="#ffffff" />
    <path
       id="Trazado_229"
       data-name="Trazado 229"
       d="m 245.168,255.81 h -3.5 l 1.752,-3.034 1.752,-3.034 1.752,3.034 1.752,3.034 z"
       transform="translate(-206.548,-180.658)"
       fill="#ffffff" />
    <path
       id="Trazado_230"
       data-name="Trazado 230"
       d="m 262.219,228.431 h -3.876 l 1.938,-3.357 1.938,-3.357 1.938,3.357 1.938,3.357 z"
       transform="translate(-217.997,-161.42)"
       fill="#ffffff" />
    <path
       id="Trazado_231"
       data-name="Trazado 231"
       d="m 262.219,193.8 h 3.881 l -1.938,3.357 -1.938,3.357 -1.938,-3.357 -1.938,-3.357 z"
       transform="translate(-217.997,-142.253)"
       fill="#ffffff" />
    <path
       id="Trazado_232"
       data-name="Trazado 232"
       d="m 196.12,175.784 h -3.576 l 1.788,-3.1 1.788,-3.1 1.788,3.1 1.788,3.1 z"
       transform="translate(-172.828,-125.636)"
       fill="#ffffff" />
    <path
       id="Trazado_233"
       data-name="Trazado 233"
       d="m 179.042,202.735 h -3.576 l 1.788,-3.1 1.788,-3.1 1.788,3.1 1.788,3.1 z"
       transform="translate(-161.104,-144.137)"
       fill="#ffffff" />
    <path
       id="Trazado_234"
       data-name="Trazado 234"
       d="M 279.878,202.735 H 276.3 l 1.788,-3.1 1.788,-3.1 1.788,3.1 1.788,3.1 z"
       transform="translate(-230.325,-144.137)"
       fill="#ffffff" />
    <path
       id="Trazado_235"
       data-name="Trazado 235"
       d="m 261.716,175.784 h -3.576 l 1.788,-3.1 1.788,-3.1 1.788,3.1 1.788,3.1 z"
       transform="translate(-217.858,-125.636)"
       fill="#ffffff" />
    <path
       id="Trazado_236"
       data-name="Trazado 236"
       d="m 271.925,171.516 -1.956,-2.994 2.034,0.807 2.034,0.807 -0.078,2.187 -0.078,2.187 z"
       transform="translate(-225.978,-124.904)"
       fill="#ffffff" />
    <path
       id="Trazado_237"
       data-name="Trazado 237"
       d="m 192.574,171.234 -1.934,2.6 -0.045,-2.052 -0.045,-2.051 1.979,-0.544 1.979,-0.544 z"
       transform="translate(-171.459,-124.983)"
       fill="#ffffff" />
    <path
       id="Trazado_238"
       data-name="Trazado 238"
       d="m 244.352,167.417 h 3.876 l -1.938,3.357 -1.938,3.357 -1.938,-3.357 -1.938,-3.357 z"
       transform="translate(-205.732,-124.144)"
       fill="#ffffff" />
    <path
       id="Trazado_239"
       data-name="Trazado 239"
       d="m 210.447,273.1 h 6.565 c 0,0 1.071,-0.046 0.978,1.537 v 2.375 z"
       transform="translate(-185.118,-196.692)"
       fill="#ffffff" />
    <path
       id="Trazado_240"
       data-name="Trazado 240"
       d="m 246.329,273.1 h -6.565 c 0,0 -1.071,-0.046 -0.978,1.537 v 2.375 z"
       transform="translate(-204.568,-196.692)"
       fill="#ffffff" />
    <path
       id="Trazado_241"
       data-name="Trazado 241"
       d="m 224.426,140.988 -2.024,0.633 3.934,5.494 0.45,-5.82 z"
       transform="translate(-193.325,-106.001)"
       fill="#ffffff" />
    <path
       id="Trazado_242"
       data-name="Trazado 242"
       d="m 239.227,140.616 2.024,0.633 -3.934,5.494 -0.45,-5.82 z"
       transform="translate(-203.254,-105.747)"
       fill="#ffffff" />
    <g
       id="Grupo_50"
       data-name="Grupo 50"
       transform="translate(12.096,41.246)">
      <g
         id="Grupo_49"
         data-name="Grupo 49">
        <circle
           id="Elipse_110"
           data-name="Elipse 110"
           cx="1.057"
           cy="1.057"
           r="1.057"
           transform="translate(4.864,25.723)"
           fill="#ffffff" />
        <circle
           id="Elipse_111"
           data-name="Elipse 111"
           cx="1.057"
           cy="1.057"
           r="1.057"
           transform="translate(10.835,33.964)"
           fill="#ffffff" />
        <circle
           id="Elipse_112"
           data-name="Elipse 112"
           cx="1.057"
           cy="1.057"
           r="1.057"
           transform="translate(30.27,33.755)"
           fill="#ffffff" />
        <circle
           id="Elipse_113"
           data-name="Elipse 113"
           cx="1.057"
           cy="1.057"
           r="1.057"
           transform="translate(36.399,25.765)"
           fill="#ffffff" />
        <circle
           id="Elipse_114"
           data-name="Elipse 114"
           cx="1.057"
           cy="1.057"
           r="1.057"
           transform="translate(41.333,16.895)"
           fill="#ffffff" />
        <circle
           id="Elipse_115"
           data-name="Elipse 115"
           cx="1.057"
           cy="1.057"
           r="1.057"
           transform="translate(36.399,8.514)"
           fill="#ffffff" />
        <circle
           id="Elipse_116"
           data-name="Elipse 116"
           cx="1.057"
           cy="1.057"
           r="1.057"
           transform="translate(30.4,0.098)"
           fill="#ffffff" />
        <circle
           id="Elipse_117"
           data-name="Elipse 117"
           cx="1.057"
           cy="1.057"
           r="1.057"
           transform="translate(10.565)"
           fill="#ffffff" />
        <circle
           id="Elipse_118"
           data-name="Elipse 118"
           cx="1.057"
           cy="1.057"
           r="1.057"
           transform="translate(20.513,0.379)"
           fill="#ffffff" />
        <circle
           id="Elipse_119"
           data-name="Elipse 119"
           cx="1.057"
           cy="1.057"
           r="1.057"
           transform="translate(4.784,8.516)"
           fill="#ffffff" />
        <circle
           id="Elipse_120"
           data-name="Elipse 120"
           cx="0.89200002"
           cy="0.89200002"
           r="0.89200002"
           transform="translate(9.848,17.147)"
           fill="#ffffff" />
        <circle
           id="Elipse_121"
           data-name="Elipse 121"
           cx="0.89200002"
           cy="0.89200002"
           r="0.89200002"
           transform="translate(15.138,25.723)"
           fill="#ffffff" />
        <circle
           id="Elipse_122"
           data-name="Elipse 122"
           cx="0.89200002"
           cy="0.89200002"
           r="0.89200002"
           transform="translate(20.678,33.964)"
           fill="#ffffff" />
        <circle
           id="Elipse_123"
           data-name="Elipse 123"
           cx="0.89200002"
           cy="0.89200002"
           r="0.89200002"
           transform="translate(26.235,8.923)"
           fill="#ffffff" />
        <circle
           id="Elipse_124"
           data-name="Elipse 124"
           cx="0.89200002"
           cy="0.89200002"
           r="0.89200002"
           transform="translate(31.079,17.164)"
           fill="#ffffff" />
        <circle
           id="Elipse_125"
           data-name="Elipse 125"
           cx="0.89200002"
           cy="0.89200002"
           r="0.89200002"
           transform="translate(25.789,25.74)"
           fill="#ffffff" />
        <circle
           id="Elipse_126"
           data-name="Elipse 126"
           cx="1.057"
           cy="1.057"
           r="1.057"
           transform="translate(0,16.895)"
           fill="#ffffff" />
        <circle
           id="Elipse_127"
           data-name="Elipse 127"
           cx="0.89200002"
           cy="0.89200002"
           r="0.89200002"
           transform="translate(14.693,8.906)"
           fill="#ffffff" />
      </g>
    </g>
  </g>
</svg>
